<?xml version="1.0" encoding="UTF-8"?>
<svg xmlns="http://www.w3.org/2000/svg" version="1.1" viewBox="0 0 581.6 198.91">
  <!-- Generator: Adobe Illustrator 29.8.2, SVG Export Plug-In . SVG Version: 2.1.1 Build 3)  -->
  <defs>
    <style>
      .st0 {
        fill: none;
        stroke: #000;
        stroke-miterlimit: 10;
      }

      .st1 {
        display: none;
      }
    </style>
  </defs>
  <g id="Laag_2" class="st1">
    <line class="st0" x1="-85.56" y1="103.06" x2="774.23" y2="103.06"/>
    <line class="st0" x1="-85.56" y1="127.92" x2="774.23" y2="127.92"/>
    <line class="st0" x1="-85.56" y1="152.79" x2="774.23" y2="152.79"/>
    <line class="st0" x1="-85.56" y1="78.19" x2="774.23" y2="78.19"/>
    <line class="st0" x1="-85.56" y1="28.46" x2="774.23" y2="28.46"/>
    <line class="st0" x1="-85.56" y1="53.33" x2="774.23" y2="53.33"/>
    <line class="st0" x1="-85.56" y1="78.19" x2="774.23" y2="78.19"/>
    <line class="st0" x1="-85.56" y1="3.59" x2="774.23" y2="3.59"/>
    <line class="st0" x1="-85.56" y1="177.65" x2="774.23" y2="177.65"/>
    <line class="st0" x1="-85.56" y1="202.52" x2="774.23" y2="202.52"/>
    <line class="st0" x1="-85.56" y1="227.39" x2="774.23" y2="227.39"/>
    <line class="st0" x1="-85.56" y1="152.79" x2="774.23" y2="152.79"/>
    <line class="st0" x1="200.16" y1="538.67" x2="200.16" y2="-321.13"/>
    <line class="st0" x1="180.64" y1="538.67" x2="180.64" y2="-321.13"/>
    <line class="st0" x1="161.11" y1="538.67" x2="161.11" y2="-321.13"/>
  </g>
  <g id="Laag_3" class="st1">
    <g>
      <path d="M259.36,269.1c-3.68,1.99-9.36,2.69-14.03,2.69-22.4,0-39.22-16.53-39.22-38.62s16.82-38.62,39.32-38.62c4.68,0,10.25.8,13.94,2.59v16.23c-3.68-1.89-7.86-2.79-12.94-2.79-13.14,0-22.9,9.26-22.9,22.6s9.76,22.5,22.9,22.5c5.08,0,9.26-.8,12.94-2.59v16.03Z"/>
      <path d="M323.51,255.16v15.13h-50.17v-74.66h49.47v15.13h-33.15v13.54h31.55v14.13h-31.55v16.72h33.84Z"/>
      <path d="M407.11,195.64l-35.83,75.95h-2.09l-35.93-75.95h18.61l18.51,43.5,18.42-43.5h18.32Z"/>
      <path d="M442.45,258.55h-26.38l-4.68,11.75h-18.91l35.74-75.35h1.99l35.74,75.35h-18.81l-4.68-11.75ZM429.21,225.1l-8.26,20.7h16.62l-8.36-20.7Z"/>
      <path d="M518.95,269.1c-3.68,1.99-9.36,2.69-14.03,2.69-22.4,0-39.22-16.53-39.22-38.62s16.82-38.62,39.32-38.62c4.68,0,10.25.8,13.94,2.59v16.23c-3.68-1.89-7.86-2.79-12.94-2.79-13.14,0-22.9,9.26-22.9,22.6s9.76,22.5,22.9,22.5c5.08,0,9.26-.8,12.94-2.59v16.03Z"/>
      <path d="M583.1,255.16v15.13h-50.17v-74.66h49.47v15.13h-33.15v13.54h31.55v14.13h-31.55v16.72h33.84Z"/>
    </g>
  </g>
  <g id="Laag_1">
    <g>
      <path d="M98.26,173.06c-18.54,0-35.97-7.22-49.08-20.33l12.18-12.18c9.86,9.86,22.96,15.28,36.9,15.28,13.94,0,27.04-5.43,36.9-15.28,9.86-9.86,15.28-22.96,15.28-36.9,0-13.94-5.43-27.04-15.28-36.9l12.18-12.18c13.11,13.11,20.33,30.54,20.33,49.08,0,18.54-7.22,35.97-20.33,49.08-13.11,13.11-30.54,20.33-49.08,20.33Z"/>
      <path d="M98.28,138.7c-9.37,0-18.17-3.65-24.79-10.27l12.35-12.35c3.32,3.32,7.74,5.16,12.44,5.16,4.7,0,9.12-1.83,12.44-5.16,3.32-3.32,5.15-7.74,5.15-12.44s-1.83-9.12-5.15-12.44l12.35-12.35c6.62,6.62,10.27,15.43,10.27,24.79,0,9.37-3.65,18.17-10.27,24.79-6.62,6.62-15.43,10.27-24.79,10.27Z"/>
      <path d="M36.96,164.95c-33.81-33.81-33.81-88.82,0-122.62,16.38-16.38,38.15-25.4,61.31-25.4,23.16,0,44.93,9.02,61.31,25.4l-12.24,12.24c-27.06-27.06-71.09-27.06-98.15,0-13.11,13.11-20.33,30.54-20.33,49.08,0,18.54,7.22,35.97,20.33,49.08l-12.24,12.24Z"/>
      <path d="M61.37,140.52c-20.36-20.36-20.36-53.48,0-73.83,9.86-9.86,22.97-15.29,36.92-15.29,13.95,0,27.06,5.43,36.92,15.29l-12.11,12.11c-6.63-6.63-15.43-10.27-24.8-10.27-9.37,0-18.18,3.65-24.8,10.27-6.63,6.63-10.27,15.43-10.27,24.8,0,9.37,3.65,18.18,10.27,24.8l-12.11,12.11Z"/>
    </g>
    <g>
      <path d="M257.46,91.02c-4.47-5.46-10-8.19-16.57-8.19-2.89,0-5.57.53-8.04,1.58-2.47,1.05-4.59,2.48-6.36,4.29-1.78,1.81-3.17,3.96-4.19,6.46-1.02,2.5-1.53,5.2-1.53,8.09s.51,5.69,1.53,8.19c1.02,2.5,2.43,4.67,4.24,6.51,1.81,1.84,3.93,3.29,6.36,4.34,2.43,1.05,5.06,1.58,7.89,1.58,6.18,0,11.74-2.63,16.67-7.89v22.88l-1.97.69c-2.96,1.05-5.72,1.83-8.29,2.32s-5.1.74-7.6.74c-5.13,0-10.05-.97-14.75-2.91-4.7-1.94-8.85-4.67-12.43-8.19-3.58-3.52-6.46-7.69-8.63-12.53-2.17-4.83-3.26-10.11-3.26-15.83s1.07-10.96,3.21-15.73c2.14-4.77,5-8.88,8.58-12.33,3.58-3.45,7.74-6.15,12.48-8.09,4.74-1.94,9.7-2.91,14.9-2.91,2.96,0,5.87.31,8.73.94,2.86.63,5.87,1.6,9.03,2.91v23.08Z"/>
      <path d="M312.21,82.53h-22.98v12.43h21.7v16.38h-21.7v12.82h22.98v16.37h-42.32v-74.38h42.32v16.37Z"/>
      <path d="M337.79,66.16l17.95,45.28,18.05-45.28h21.01l-31.37,74.38h-15.39l-31.27-74.38h21.01Z"/>
      <path d="M434.18,127.61h-27.62l-4.44,12.92h-20.62l28.31-74.38h21.11l28.31,74.38h-20.62l-4.44-12.92ZM429.05,112.92l-8.68-24.76-8.68,24.76h17.36Z"/>
      <path d="M516.09,91.02c-4.47-5.46-10-8.19-16.57-8.19-2.89,0-5.57.53-8.04,1.58-2.47,1.05-4.59,2.48-6.36,4.29-1.78,1.81-3.17,3.96-4.19,6.46-1.02,2.5-1.53,5.2-1.53,8.09s.51,5.69,1.53,8.19c1.02,2.5,2.43,4.67,4.24,6.51,1.81,1.84,3.93,3.29,6.36,4.34,2.43,1.05,5.06,1.58,7.89,1.58,6.18,0,11.74-2.63,16.67-7.89v22.88l-1.97.69c-2.96,1.05-5.72,1.83-8.29,2.32s-5.1.74-7.6.74c-5.13,0-10.05-.97-14.75-2.91-4.7-1.94-8.85-4.67-12.43-8.19-3.58-3.52-6.46-7.69-8.63-12.53-2.17-4.83-3.26-10.11-3.26-15.83s1.07-10.96,3.21-15.73c2.14-4.77,5-8.88,8.58-12.33,3.58-3.45,7.74-6.15,12.48-8.09,4.74-1.94,9.7-2.91,14.9-2.91,2.96,0,5.87.31,8.73.94,2.86.63,5.87,1.6,9.03,2.91v23.08Z"/>
      <path d="M570.84,82.53h-22.98v12.43h21.7v16.38h-21.7v12.82h22.98v16.37h-42.32v-74.38h42.32v16.37Z"/>
    </g>
  </g>
</svg>